<svg width="199" height="73" viewBox="0 0 199 73" fill="none" xmlns="http://www.w3.org/2000/svg">
<path d="M10.2 70.9V28.3H3.2261e-06V19.5H15.7C13.0333 19.5 10.7 18.7333 8.7 17.2C6.7 15.6667 5.7 13.5333 5.7 10.8C5.7 7.93333 6.76667 5.56666 8.9 3.7C11.0333 1.83333 14.0333 0.899997 17.9 0.899997H30.9V9.6H20.1C18.3667 9.6 16.9333 10.0667 15.8 11C14.7333 11.8667 14.2 13.0333 14.2 14.5C14.2 16.1 14.7667 17.3333 15.9 18.2C17.1 19.0667 18.6333 19.5 20.5 19.5H34.7V28.3H20.2V70.9H10.2ZM45.0344 70.9V19.5H55.0344V70.9H45.0344ZM44.8344 11.8V-3.57628e-06H55.2344V11.8H44.8344ZM68.5602 70.9V0.899997H78.5602V70.9H68.5602ZM114.405 72.2C106.805 72.2 100.571 69.6667 95.7047 64.6C90.9047 59.5333 88.5047 52.9667 88.5047 44.9C88.5047 37.0333 90.9714 30.6333 95.9047 25.7C100.905 20.7 107.105 18.2 114.505 18.2C122.038 18.2 128.005 20.6667 132.405 25.6C136.805 30.5333 139.005 36.5667 139.005 43.7C139.005 45.9 138.905 47.6 138.705 48.8H98.5047C99.1714 53.2667 100.938 56.8333 103.805 59.5C106.671 62.1 110.271 63.4 114.605 63.4C121.271 63.4 126.171 60.8667 129.305 55.8L136.705 60.6C134.638 64.1333 131.671 66.9667 127.805 69.1C123.938 71.1667 119.471 72.2 114.405 72.2ZM98.6047 40.4H129.305C129.238 36.6667 127.771 33.5 124.905 30.9C122.105 28.2333 118.605 26.9 114.405 26.9C110.205 26.9 106.705 28.1333 103.905 30.6C101.171 33.0667 99.4047 36.3333 98.6047 40.4ZM169.027 72.2C162.56 72.2 157.093 69.6333 152.627 64.5C148.16 59.3667 145.927 52.9667 145.927 45.3C145.927 37.4333 148.127 30.9667 152.527 25.9C156.927 20.7667 162.427 18.2 169.027 18.2C174.36 18.2 178.727 19.9 182.127 23.3C185.593 26.7 187.66 31.3333 188.327 37.2V0.899997H198.327V70.9H188.327V52.4C187.66 58.4667 185.727 63.3 182.527 66.9C179.327 70.4333 174.827 72.2 169.027 72.2ZM156.127 45.3C156.127 50.6333 157.66 54.9333 160.727 58.2C163.86 61.4667 167.793 63.1 172.527 63.1C177.327 63.1 181.227 61.4 184.227 58C187.227 54.6 188.727 50.3667 188.727 45.3C188.727 39.7667 187.16 35.4 184.027 32.2C180.893 28.9333 177.027 27.3 172.427 27.3C167.76 27.3 163.86 29 160.727 32.4C157.66 35.7333 156.127 40.0333 156.127 45.3Z" fill="white"></path>
</svg>